<svg xmlns="http://www.w3.org/2000/svg" width="32" height="32" viewBox="0 0 32 32" role="img" aria-label="Movior">
  <rect width="32" height="32" rx="7" fill="#e2531f"/>
  <!-- Stylized wave M monogram from Movior wordmark -->
  <path fill="#ffffff" d="M5.2 23.5V10.4c0-.45.3-.75.7-.8.2-.02.4.05.55.2l1.05.95c1.45 1.3 2.65.45 3.75-1.05 1.45-1.95 3.15-2.75 5.05-1.45 1.2.85 2 2.15 2.7 3.55.7 1.35 1.55 2.4 2.85 1.9.3-.1.65.1.65.45v9.35c0 .4-.3.7-.7.7h-1.5c-.4 0-.7-.3-.7-.7v-6.7c-.8.5-1.55.1-2.25-1.1-.8-1.35-1.65-2.4-2.85-1.95-1.05.35-1.8 1.55-2.5 2.85-.85 1.45-1.9 2.45-3.4 1.95-.7-.2-1.25-.8-1.75-1.5v6.45c0 .4-.3.7-.7.7H5.9c-.4 0-.7-.3-.7-.7z"/>
</svg>
